<svg xmlns="http://www.w3.org/2000/svg" width="640" height="420" viewBox="0 0 640 420" role="img" aria-label="Ada mutfak modeli">
  <defs>
    <linearGradient id="bg" x1="0" x2="1" y1="0" y2="1"><stop stop-color="#ffffff"/><stop offset="1" stop-color="#edf5fd"/></linearGradient>
    <linearGradient id="face" x1="0" x2="1" y1="0" y2="1"><stop stop-color="#dfb37c"/><stop offset="1" stop-color="#d9d2c7"/></linearGradient>
  </defs>
  <rect width="640" height="420" rx="26" fill="url(#bg)"/>
  <ellipse cx="320" cy="346" rx="230" ry="28" fill="#cbd5e1" opacity=".42"/>
  <rect x="88" y="58" width="464" height="230" rx="18" fill="#f8fafc" stroke="#cbd5e1" stroke-width="6"/><rect x="138" y="220" width="104" height="78" rx="8" fill="#f2eee8" stroke="#a8b5c5" stroke-width="5"/><rect x="268" y="220" width="104" height="78" rx="8" fill="#f2eee8" stroke="#a8b5c5" stroke-width="5"/><rect x="398" y="220" width="104" height="78" rx="8" fill="#f2eee8" stroke="#a8b5c5" stroke-width="5"/><rect x="184" y="318" width="272" height="58" rx="16" fill="url(#face)" stroke="#9b6b38" stroke-width="6"/><rect x="166" y="300" width="308" height="26" rx="12" fill="#e5e7eb" stroke="#cbd5e1" stroke-width="5"/><rect x="196" y="124" width="100" height="66" rx="8" fill="#eef4f8"/><rect x="336" y="124" width="100" height="66" rx="8" fill="#eef4f8"/><rect x="470" y="92" width="46" height="138" rx="8" fill="#cbd5e1"/>
</svg>
