{
  "asset": {
    "version": "2.0",
    "generator": "Decusin procedural kitchen asset generator"
  },
  "scene": 0,
  "scenes": [
    {
      "nodes": [
        0
      ]
    }
  ],
  "nodes": [
    {
      "name": "countertop-stone-premium",
      "mesh": 0
    }
  ],
  "meshes": [
    {
      "name": "countertop-stone-premium",
      "primitives": [
        {
          "attributes": {
            "POSITION": 0
          },
          "indices": 1,
          "material": 6
        },
        {
          "attributes": {
            "POSITION": 2
          },
          "indices": 3,
          "material": 5
        }
      ]
    }
  ],
  "materials": [
    {
      "name": "shell",
      "pbrMetallicRoughness": {
        "baseColorFactor": [
          0.84,
          0.8,
          0.72,
          1
        ],
        "metallicFactor": 0,
        "roughnessFactor": 0.58
      },
      "alphaMode": "OPAQUE"
    },
    {
      "name": "light",
      "pbrMetallicRoughness": {
        "baseColorFactor": [
          0.96,
          0.95,
          0.91,
          1
        ],
        "metallicFactor": 0,
        "roughnessFactor": 0.58
      },
      "alphaMode": "OPAQUE"
    },
    {
      "name": "dark",
      "pbrMetallicRoughness": {
        "baseColorFactor": [
          0.12,
          0.16,
          0.22,
          1
        ],
        "metallicFactor": 0,
        "roughnessFactor": 0.58
      },
      "alphaMode": "OPAQUE"
    },
    {
      "name": "oak",
      "pbrMetallicRoughness": {
        "baseColorFactor": [
          0.62,
          0.4,
          0.2,
          1
        ],
        "metallicFactor": 0,
        "roughnessFactor": 0.58
      },
      "alphaMode": "OPAQUE"
    },
    {
      "name": "glass",
      "pbrMetallicRoughness": {
        "baseColorFactor": [
          0.58,
          0.72,
          0.82,
          0.45
        ],
        "metallicFactor": 0,
        "roughnessFactor": 0.18
      },
      "alphaMode": "BLEND"
    },
    {
      "name": "metal",
      "pbrMetallicRoughness": {
        "baseColorFactor": [
          0.7,
          0.73,
          0.76,
          1
        ],
        "metallicFactor": 0.65,
        "roughnessFactor": 0.58
      },
      "alphaMode": "OPAQUE"
    },
    {
      "name": "stone",
      "pbrMetallicRoughness": {
        "baseColorFactor": [
          0.82,
          0.82,
          0.78,
          1
        ],
        "metallicFactor": 0,
        "roughnessFactor": 0.58
      },
      "alphaMode": "OPAQUE"
    }
  ],
  "buffers": [
    {
      "uri": "data:application/octet-stream;base64,",
      "byteLength": 720
    }
  ],
  "bufferViews": [
    {
      "buffer": 0,
      "byteOffset": 0,
      "byteLength": 288,
      "target": 34962
    },
    {
      "buffer": 0,
      "byteOffset": 288,
      "byteLength": 72,
      "target": 34963
    },
    {
      "buffer": 0,
      "byteOffset": 360,
      "byteLength": 288,
      "target": 34962
    },
    {
      "buffer": 0,
      "byteOffset": 648,
      "byteLength": 72,
      "target": 34963
    }
  ],
  "accessors": [
    {
      "bufferView": 0,
      "componentType": 5126,
      "count": 24,
      "type": "VEC3",
      "min": [
        -0.8,
        0,
        -0.31
      ],
      "max": [
        0.8,
        0.06,
        0.31
      ]
    },
    {
      "bufferView": 1,
      "componentType": 5123,
      "count": 36,
      "type": "SCALAR"
    },
    {
      "bufferView": 2,
      "componentType": 5126,
      "count": 24,
      "type": "VEC3",
      "min": [
        -0.775,
        0.066,
        -0.235
      ],
      "max": [
        0.775,
        0.08399999999999999,
        -0.20500000000000002
      ]
    },
    {
      "bufferView": 3,
      "componentType": 5123,
      "count": 36,
      "type": "SCALAR"
    }
  ]
}
