{
  "asset": {
    "version": "2.0",
    "generator": "Decusin demo model generator"
  },
  "scene": 0,
  "scenes": [
    {
      "nodes": [
        0
      ]
    }
  ],
  "nodes": [
    {
      "name": "Countertop Demo",
      "mesh": 0
    }
  ],
  "meshes": [
    {
      "name": "Countertop Demo",
      "primitives": [
        {
          "attributes": {
            "POSITION": 0
          },
          "indices": 1,
          "material": 0
        }
      ]
    }
  ],
  "materials": [
    {
      "name": "Countertop Demo material",
      "pbrMetallicRoughness": {
        "baseColorFactor": [
          0.78,
          0.78,
          0.74,
          1
        ],
        "metallicFactor": 0,
        "roughnessFactor": 0.72
      }
    }
  ],
  "buffers": [
    {
      "uri": "data:application/octet-stream;base64,",
      "byteLength": 360
    }
  ],
  "bufferViews": [
    {
      "buffer": 0,
      "byteOffset": 0,
      "byteLength": 288,
      "target": 34962
    },
    {
      "buffer": 0,
      "byteOffset": 288,
      "byteLength": 72,
      "target": 34963
    }
  ],
  "accessors": [
    {
      "bufferView": 0,
      "componentType": 5126,
      "count": 24,
      "type": "VEC3",
      "min": [
        -1.1,
        0,
        -0.32
      ],
      "max": [
        1.1,
        0.08,
        0.32
      ]
    },
    {
      "bufferView": 1,
      "componentType": 5123,
      "count": 36,
      "type": "SCALAR"
    }
  ]
}
