{
  "asset": {
    "version": "2.0",
    "generator": "Decusin procedural kitchen asset generator"
  },
  "scene": 0,
  "scenes": [
    {
      "nodes": [
        0
      ]
    }
  ],
  "nodes": [
    {
      "name": "kitchen-layout-island-premium",
      "mesh": 0
    }
  ],
  "meshes": [
    {
      "name": "kitchen-layout-island-premium",
      "primitives": [
        {
          "attributes": {
            "POSITION": 0
          },
          "indices": 1,
          "material": 1
        },
        {
          "attributes": {
            "POSITION": 2
          },
          "indices": 3,
          "material": 6
        },
        {
          "attributes": {
            "POSITION": 4
          },
          "indices": 5,
          "material": 0
        },
        {
          "attributes": {
            "POSITION": 6
          },
          "indices": 7,
          "material": 0
        },
        {
          "attributes": {
            "POSITION": 8
          },
          "indices": 9,
          "material": 0
        },
        {
          "attributes": {
            "POSITION": 10
          },
          "indices": 11,
          "material": 3
        },
        {
          "attributes": {
            "POSITION": 12
          },
          "indices": 13,
          "material": 6
        },
        {
          "attributes": {
            "POSITION": 14
          },
          "indices": 15,
          "material": 1
        },
        {
          "attributes": {
            "POSITION": 16
          },
          "indices": 17,
          "material": 1
        },
        {
          "attributes": {
            "POSITION": 18
          },
          "indices": 19,
          "material": 5
        }
      ]
    }
  ],
  "materials": [
    {
      "name": "shell",
      "pbrMetallicRoughness": {
        "baseColorFactor": [
          0.84,
          0.8,
          0.72,
          1
        ],
        "metallicFactor": 0,
        "roughnessFactor": 0.58
      },
      "alphaMode": "OPAQUE"
    },
    {
      "name": "light",
      "pbrMetallicRoughness": {
        "baseColorFactor": [
          0.96,
          0.95,
          0.91,
          1
        ],
        "metallicFactor": 0,
        "roughnessFactor": 0.58
      },
      "alphaMode": "OPAQUE"
    },
    {
      "name": "dark",
      "pbrMetallicRoughness": {
        "baseColorFactor": [
          0.12,
          0.16,
          0.22,
          1
        ],
        "metallicFactor": 0,
        "roughnessFactor": 0.58
      },
      "alphaMode": "OPAQUE"
    },
    {
      "name": "oak",
      "pbrMetallicRoughness": {
        "baseColorFactor": [
          0.62,
          0.4,
          0.2,
          1
        ],
        "metallicFactor": 0,
        "roughnessFactor": 0.58
      },
      "alphaMode": "OPAQUE"
    },
    {
      "name": "glass",
      "pbrMetallicRoughness": {
        "baseColorFactor": [
          0.58,
          0.72,
          0.82,
          0.45
        ],
        "metallicFactor": 0,
        "roughnessFactor": 0.18
      },
      "alphaMode": "BLEND"
    },
    {
      "name": "metal",
      "pbrMetallicRoughness": {
        "baseColorFactor": [
          0.7,
          0.73,
          0.76,
          1
        ],
        "metallicFactor": 0.65,
        "roughnessFactor": 0.58
      },
      "alphaMode": "OPAQUE"
    },
    {
      "name": "stone",
      "pbrMetallicRoughness": {
        "baseColorFactor": [
          0.82,
          0.82,
          0.78,
          1
        ],
        "metallicFactor": 0,
        "roughnessFactor": 0.58
      },
      "alphaMode": "OPAQUE"
    }
  ],
  "buffers": [
    {
      "uri": "data:application/octet-stream;base64,",
      "byteLength": 3600
    }
  ],
  "bufferViews": [
    {
      "buffer": 0,
      "byteOffset": 0,
      "byteLength": 288,
      "target": 34962
    },
    {
      "buffer": 0,
      "byteOffset": 288,
      "byteLength": 72,
      "target": 34963
    },
    {
      "buffer": 0,
      "byteOffset": 360,
      "byteLength": 288,
      "target": 34962
    },
    {
      "buffer": 0,
      "byteOffset": 648,
      "byteLength": 72,
      "target": 34963
    },
    {
      "buffer": 0,
      "byteOffset": 720,
      "byteLength": 288,
      "target": 34962
    },
    {
      "buffer": 0,
      "byteOffset": 1008,
      "byteLength": 72,
      "target": 34963
    },
    {
      "buffer": 0,
      "byteOffset": 1080,
      "byteLength": 288,
      "target": 34962
    },
    {
      "buffer": 0,
      "byteOffset": 1368,
      "byteLength": 72,
      "target": 34963
    },
    {
      "buffer": 0,
      "byteOffset": 1440,
      "byteLength": 288,
      "target": 34962
    },
    {
      "buffer": 0,
      "byteOffset": 1728,
      "byteLength": 72,
      "target": 34963
    },
    {
      "buffer": 0,
      "byteOffset": 1800,
      "byteLength": 288,
      "target": 34962
    },
    {
      "buffer": 0,
      "byteOffset": 2088,
      "byteLength": 72,
      "target": 34963
    },
    {
      "buffer": 0,
      "byteOffset": 2160,
      "byteLength": 288,
      "target": 34962
    },
    {
      "buffer": 0,
      "byteOffset": 2448,
      "byteLength": 72,
      "target": 34963
    },
    {
      "buffer": 0,
      "byteOffset": 2520,
      "byteLength": 288,
      "target": 34962
    },
    {
      "buffer": 0,
      "byteOffset": 2808,
      "byteLength": 72,
      "target": 34963
    },
    {
      "buffer": 0,
      "byteOffset": 2880,
      "byteLength": 288,
      "target": 34962
    },
    {
      "buffer": 0,
      "byteOffset": 3168,
      "byteLength": 72,
      "target": 34963
    },
    {
      "buffer": 0,
      "byteOffset": 3240,
      "byteLength": 288,
      "target": 34962
    },
    {
      "buffer": 0,
      "byteOffset": 3528,
      "byteLength": 72,
      "target": 34963
    }
  ],
  "accessors": [
    {
      "bufferView": 0,
      "componentType": 5126,
      "count": 24,
      "type": "VEC3",
      "min": [
        -1.8,
        0,
        -0.49
      ],
      "max": [
        1.8,
        2.5,
        -0.41000000000000003
      ]
    },
    {
      "bufferView": 1,
      "componentType": 5123,
      "count": 36,
      "type": "SCALAR"
    },
    {
      "bufferView": 2,
      "componentType": 5126,
      "count": 24,
      "type": "VEC3",
      "min": [
        -1.9,
        -0.06,
        -0.2500000000000001
      ],
      "max": [
        1.9,
        0,
        1.9500000000000002
      ]
    },
    {
      "bufferView": 3,
      "componentType": 5123,
      "count": 36,
      "type": "SCALAR"
    },
    {
      "bufferView": 4,
      "componentType": 5126,
      "count": 24,
      "type": "VEC3",
      "min": [
        -1.38,
        0,
        -0.28
      ],
      "max": [
        -0.52,
        0.72,
        0.28
      ]
    },
    {
      "bufferView": 5,
      "componentType": 5123,
      "count": 36,
      "type": "SCALAR"
    },
    {
      "bufferView": 6,
      "componentType": 5126,
      "count": 24,
      "type": "VEC3",
      "min": [
        -0.43,
        0,
        -0.28
      ],
      "max": [
        0.43,
        0.72,
        0.28
      ]
    },
    {
      "bufferView": 7,
      "componentType": 5123,
      "count": 36,
      "type": "SCALAR"
    },
    {
      "bufferView": 8,
      "componentType": 5126,
      "count": 24,
      "type": "VEC3",
      "min": [
        0.52,
        0,
        -0.28
      ],
      "max": [
        1.38,
        0.72,
        0.28
      ]
    },
    {
      "bufferView": 9,
      "componentType": 5123,
      "count": 36,
      "type": "SCALAR"
    },
    {
      "bufferView": 10,
      "componentType": 5126,
      "count": 24,
      "type": "VEC3",
      "min": [
        -0.875,
        0.06,
        0.6900000000000002
      ],
      "max": [
        0.875,
        0.78,
        1.51
      ]
    },
    {
      "bufferView": 11,
      "componentType": 5123,
      "count": 36,
      "type": "SCALAR"
    },
    {
      "bufferView": 12,
      "componentType": 5126,
      "count": 24,
      "type": "VEC3",
      "min": [
        -0.95,
        0.76,
        0.6250000000000001
      ],
      "max": [
        0.95,
        0.8400000000000001,
        1.5750000000000002
      ]
    },
    {
      "bufferView": 13,
      "componentType": 5123,
      "count": 36,
      "type": "SCALAR"
    },
    {
      "bufferView": 14,
      "componentType": 5126,
      "count": 24,
      "type": "VEC3",
      "min": [
        -0.95,
        1.17,
        -0.14
      ],
      "max": [
        -0.09000000000000002,
        1.73,
        0.18
      ]
    },
    {
      "bufferView": 15,
      "componentType": 5123,
      "count": 36,
      "type": "SCALAR"
    },
    {
      "bufferView": 16,
      "componentType": 5126,
      "count": 24,
      "type": "VEC3",
      "min": [
        0.09000000000000002,
        1.17,
        -0.14
      ],
      "max": [
        0.95,
        1.73,
        0.18
      ]
    },
    {
      "bufferView": 17,
      "componentType": 5123,
      "count": 36,
      "type": "SCALAR"
    },
    {
      "bufferView": 18,
      "componentType": 5126,
      "count": 24,
      "type": "VEC3",
      "min": [
        1.03,
        0.275,
        -0.29
      ],
      "max": [
        1.57,
        1.8250000000000002,
        0.19
      ]
    },
    {
      "bufferView": 19,
      "componentType": 5123,
      "count": 36,
      "type": "SCALAR"
    }
  ]
}
