{
  "asset": {
    "version": "2.0",
    "generator": "Decusin demo model generator"
  },
  "scene": 0,
  "scenes": [
    {
      "nodes": [
        0
      ]
    }
  ],
  "nodes": [
    {
      "name": "Kitchen Room Demo",
      "mesh": 0
    }
  ],
  "meshes": [
    {
      "name": "Kitchen Room Demo",
      "primitives": [
        {
          "attributes": {
            "POSITION": 0
          },
          "indices": 1,
          "material": 0
        }
      ]
    }
  ],
  "materials": [
    {
      "name": "Kitchen Room Demo material",
      "pbrMetallicRoughness": {
        "baseColorFactor": [
          0.9,
          0.93,
          0.96,
          1
        ],
        "metallicFactor": 0,
        "roughnessFactor": 0.72
      }
    }
  ],
  "buffers": [
    {
      "uri": "data:application/octet-stream;base64,",
      "byteLength": 1080
    }
  ],
  "bufferViews": [
    {
      "buffer": 0,
      "byteOffset": 0,
      "byteLength": 864,
      "target": 34962
    },
    {
      "buffer": 0,
      "byteOffset": 864,
      "byteLength": 216,
      "target": 34963
    }
  ],
  "accessors": [
    {
      "bufferView": 0,
      "componentType": 5126,
      "count": 72,
      "type": "VEC3",
      "min": [
        -1.82,
        -0.02,
        -1.22
      ],
      "max": [
        1.8,
        2.4,
        1.2
      ]
    },
    {
      "bufferView": 1,
      "componentType": 5123,
      "count": 108,
      "type": "SCALAR"
    }
  ]
}
