{
  "asset": {
    "version": "2.0",
    "generator": "Decusin procedural kitchen asset generator"
  },
  "scene": 0,
  "scenes": [
    {
      "nodes": [
        0
      ]
    }
  ],
  "nodes": [
    {
      "name": "kitchen-layout-linear-premium",
      "mesh": 0
    }
  ],
  "meshes": [
    {
      "name": "kitchen-layout-linear-premium",
      "primitives": [
        {
          "attributes": {
            "POSITION": 0
          },
          "indices": 1,
          "material": 1
        },
        {
          "attributes": {
            "POSITION": 2
          },
          "indices": 3,
          "material": 6
        },
        {
          "attributes": {
            "POSITION": 4
          },
          "indices": 5,
          "material": 0
        },
        {
          "attributes": {
            "POSITION": 6
          },
          "indices": 7,
          "material": 0
        },
        {
          "attributes": {
            "POSITION": 8
          },
          "indices": 9,
          "material": 0
        },
        {
          "attributes": {
            "POSITION": 10
          },
          "indices": 11,
          "material": 6
        },
        {
          "attributes": {
            "POSITION": 12
          },
          "indices": 13,
          "material": 6
        },
        {
          "attributes": {
            "POSITION": 14
          },
          "indices": 15,
          "material": 6
        },
        {
          "attributes": {
            "POSITION": 16
          },
          "indices": 17,
          "material": 1
        },
        {
          "attributes": {
            "POSITION": 18
          },
          "indices": 19,
          "material": 1
        },
        {
          "attributes": {
            "POSITION": 20
          },
          "indices": 21,
          "material": 5
        }
      ]
    }
  ],
  "materials": [
    {
      "name": "shell",
      "pbrMetallicRoughness": {
        "baseColorFactor": [
          0.84,
          0.8,
          0.72,
          1
        ],
        "metallicFactor": 0,
        "roughnessFactor": 0.58
      },
      "alphaMode": "OPAQUE"
    },
    {
      "name": "light",
      "pbrMetallicRoughness": {
        "baseColorFactor": [
          0.96,
          0.95,
          0.91,
          1
        ],
        "metallicFactor": 0,
        "roughnessFactor": 0.58
      },
      "alphaMode": "OPAQUE"
    },
    {
      "name": "dark",
      "pbrMetallicRoughness": {
        "baseColorFactor": [
          0.12,
          0.16,
          0.22,
          1
        ],
        "metallicFactor": 0,
        "roughnessFactor": 0.58
      },
      "alphaMode": "OPAQUE"
    },
    {
      "name": "oak",
      "pbrMetallicRoughness": {
        "baseColorFactor": [
          0.62,
          0.4,
          0.2,
          1
        ],
        "metallicFactor": 0,
        "roughnessFactor": 0.58
      },
      "alphaMode": "OPAQUE"
    },
    {
      "name": "glass",
      "pbrMetallicRoughness": {
        "baseColorFactor": [
          0.58,
          0.72,
          0.82,
          0.45
        ],
        "metallicFactor": 0,
        "roughnessFactor": 0.18
      },
      "alphaMode": "BLEND"
    },
    {
      "name": "metal",
      "pbrMetallicRoughness": {
        "baseColorFactor": [
          0.7,
          0.73,
          0.76,
          1
        ],
        "metallicFactor": 0.65,
        "roughnessFactor": 0.58
      },
      "alphaMode": "OPAQUE"
    },
    {
      "name": "stone",
      "pbrMetallicRoughness": {
        "baseColorFactor": [
          0.82,
          0.82,
          0.78,
          1
        ],
        "metallicFactor": 0,
        "roughnessFactor": 0.58
      },
      "alphaMode": "OPAQUE"
    }
  ],
  "buffers": [
    {
      "uri": "data:application/octet-stream;base64,",
      "byteLength": 3960
    }
  ],
  "bufferViews": [
    {
      "buffer": 0,
      "byteOffset": 0,
      "byteLength": 288,
      "target": 34962
    },
    {
      "buffer": 0,
      "byteOffset": 288,
      "byteLength": 72,
      "target": 34963
    },
    {
      "buffer": 0,
      "byteOffset": 360,
      "byteLength": 288,
      "target": 34962
    },
    {
      "buffer": 0,
      "byteOffset": 648,
      "byteLength": 72,
      "target": 34963
    },
    {
      "buffer": 0,
      "byteOffset": 720,
      "byteLength": 288,
      "target": 34962
    },
    {
      "buffer": 0,
      "byteOffset": 1008,
      "byteLength": 72,
      "target": 34963
    },
    {
      "buffer": 0,
      "byteOffset": 1080,
      "byteLength": 288,
      "target": 34962
    },
    {
      "buffer": 0,
      "byteOffset": 1368,
      "byteLength": 72,
      "target": 34963
    },
    {
      "buffer": 0,
      "byteOffset": 1440,
      "byteLength": 288,
      "target": 34962
    },
    {
      "buffer": 0,
      "byteOffset": 1728,
      "byteLength": 72,
      "target": 34963
    },
    {
      "buffer": 0,
      "byteOffset": 1800,
      "byteLength": 288,
      "target": 34962
    },
    {
      "buffer": 0,
      "byteOffset": 2088,
      "byteLength": 72,
      "target": 34963
    },
    {
      "buffer": 0,
      "byteOffset": 2160,
      "byteLength": 288,
      "target": 34962
    },
    {
      "buffer": 0,
      "byteOffset": 2448,
      "byteLength": 72,
      "target": 34963
    },
    {
      "buffer": 0,
      "byteOffset": 2520,
      "byteLength": 288,
      "target": 34962
    },
    {
      "buffer": 0,
      "byteOffset": 2808,
      "byteLength": 72,
      "target": 34963
    },
    {
      "buffer": 0,
      "byteOffset": 2880,
      "byteLength": 288,
      "target": 34962
    },
    {
      "buffer": 0,
      "byteOffset": 3168,
      "byteLength": 72,
      "target": 34963
    },
    {
      "buffer": 0,
      "byteOffset": 3240,
      "byteLength": 288,
      "target": 34962
    },
    {
      "buffer": 0,
      "byteOffset": 3528,
      "byteLength": 72,
      "target": 34963
    },
    {
      "buffer": 0,
      "byteOffset": 3600,
      "byteLength": 288,
      "target": 34962
    },
    {
      "buffer": 0,
      "byteOffset": 3888,
      "byteLength": 72,
      "target": 34963
    }
  ],
  "accessors": [
    {
      "bufferView": 0,
      "componentType": 5126,
      "count": 24,
      "type": "VEC3",
      "min": [
        -1.7,
        0,
        -0.38999999999999996
      ],
      "max": [
        1.7,
        2.5,
        -0.31
      ]
    },
    {
      "bufferView": 1,
      "componentType": 5123,
      "count": 36,
      "type": "SCALAR"
    },
    {
      "bufferView": 2,
      "componentType": 5126,
      "count": 24,
      "type": "VEC3",
      "min": [
        -1.7,
        -0.06,
        -0.25
      ],
      "max": [
        1.7,
        0,
        1.65
      ]
    },
    {
      "bufferView": 3,
      "componentType": 5123,
      "count": 36,
      "type": "SCALAR"
    },
    {
      "bufferView": 4,
      "componentType": 5126,
      "count": 24,
      "type": "VEC3",
      "min": [
        -1.51,
        0,
        -0.28
      ],
      "max": [
        -0.5900000000000001,
        0.72,
        0.28
      ]
    },
    {
      "bufferView": 5,
      "componentType": 5123,
      "count": 36,
      "type": "SCALAR"
    },
    {
      "bufferView": 6,
      "componentType": 5126,
      "count": 24,
      "type": "VEC3",
      "min": [
        -0.46,
        0,
        -0.28
      ],
      "max": [
        0.46,
        0.72,
        0.28
      ]
    },
    {
      "bufferView": 7,
      "componentType": 5123,
      "count": 36,
      "type": "SCALAR"
    },
    {
      "bufferView": 8,
      "componentType": 5126,
      "count": 24,
      "type": "VEC3",
      "min": [
        0.5900000000000001,
        0,
        -0.28
      ],
      "max": [
        1.51,
        0.72,
        0.28
      ]
    },
    {
      "bufferView": 9,
      "componentType": 5123,
      "count": 36,
      "type": "SCALAR"
    },
    {
      "bufferView": 10,
      "componentType": 5126,
      "count": 24,
      "type": "VEC3",
      "min": [
        -1.54,
        0.7,
        -0.31
      ],
      "max": [
        -0.56,
        0.76,
        0.31
      ]
    },
    {
      "bufferView": 11,
      "componentType": 5123,
      "count": 36,
      "type": "SCALAR"
    },
    {
      "bufferView": 12,
      "componentType": 5126,
      "count": 24,
      "type": "VEC3",
      "min": [
        -0.49,
        0.7,
        -0.31
      ],
      "max": [
        0.49,
        0.76,
        0.31
      ]
    },
    {
      "bufferView": 13,
      "componentType": 5123,
      "count": 36,
      "type": "SCALAR"
    },
    {
      "bufferView": 14,
      "componentType": 5126,
      "count": 24,
      "type": "VEC3",
      "min": [
        0.56,
        0.7,
        -0.31
      ],
      "max": [
        1.54,
        0.76,
        0.31
      ]
    },
    {
      "bufferView": 15,
      "componentType": 5123,
      "count": 36,
      "type": "SCALAR"
    },
    {
      "bufferView": 16,
      "componentType": 5126,
      "count": 24,
      "type": "VEC3",
      "min": [
        -1.13,
        1.17,
        -0.14
      ],
      "max": [
        -0.26999999999999996,
        1.73,
        0.18
      ]
    },
    {
      "bufferView": 17,
      "componentType": 5123,
      "count": 36,
      "type": "SCALAR"
    },
    {
      "bufferView": 18,
      "componentType": 5126,
      "count": 24,
      "type": "VEC3",
      "min": [
        -0.08000000000000002,
        1.17,
        -0.14
      ],
      "max": [
        0.78,
        1.73,
        0.18
      ]
    },
    {
      "bufferView": 19,
      "componentType": 5123,
      "count": 36,
      "type": "SCALAR"
    },
    {
      "bufferView": 20,
      "componentType": 5126,
      "count": 24,
      "type": "VEC3",
      "min": [
        0.96,
        0.19999999999999998,
        0.13999999999999999
      ],
      "max": [
        1.44,
        0.27999999999999997,
        0.48
      ]
    },
    {
      "bufferView": 21,
      "componentType": 5123,
      "count": 36,
      "type": "SCALAR"
    }
  ]
}
